# xmcd CD database file
#
# Track frame offsets:
#	150
#	6238
#	13053
#	19308
#	23558
#	43600
#	53510
#	64463
#	80478
#	96255
#	113493
#	128158
#	140385
#	147293
#	150413
#	157963
#	169813
#	180310
#	189563
#	196108
#	205353
#	217363
#	244230
#	259955
#
# Disc length: 3603 seconds
#
# Revision: 2
# Processed by: cddbd v1.5PL3 Copyright (c) Steve Scherf et al.
# Submitted via: CDex 1.40Release
#
DISCID=4d0e1118
DTITLE=Various Artist - Latin Guitar Festival
DYEAR=1992
DGENRE=Classical
TTITLE0=Boleras Sevillanas
TTITLE1=Salamanca
TTITLE2=Villancico
TTITLE3=De Blanca Tierra
TTITLE4=Heitor Villa-Lobos: Choros No. 1
TTITLE5=Suite Populaire Bresilienne - Mazurka-Choro
TTITLE6=Schottish-Choro
TTITLE7=Valsa-Choro
TTITLE8=Gavotta-Choro
TTITLE9=Chorinho
TTITLE10=Enirique Crespo: Nortena
TTITLE11=Antonio Lauro: Danza Venezolana
TTITLE12=Linda Amiga
TTITLE13=Buenos Reyes
TTITLE14=El Puerto
TTITLE15=Heitor Villa-Lobos: Therezinha De Jesus (Ciranda No. 1) for 2 guitars
TTITLE16=El Pano Moruno
TTITLE17=Cantar Montanez
TTITLE18=Tutu Maramba
TTITLE19=Augustin Barios: Danza Paraguaya
TTITLE20=Manuel M. Ponce: Vals
TTITLE21=Tres Canciones Populares Mejicanas
TTITLE22=Cubana
TTITLE23=Heitor Villa-Lobos: A Canoa Virou (Cirandinha No. 10)
EXTD=YEAR: 1992 ID3G: 32
EXTT0=
EXTT1=
EXTT2=
EXTT3=
EXTT4=
EXTT5=
EXTT6=
EXTT7=
EXTT8=
EXTT9=
EXTT10=
EXTT11=
EXTT12=
EXTT13=
EXTT14=
EXTT15=
EXTT16=
EXTT17=
EXTT18=
EXTT19=
EXTT20=
EXTT21=
EXTT22=
EXTT23=
PLAYORDER=
